Coordinates
version=1
nRows=16
nColumns=41
inDegrees=yes

Units are S.I. units (second, meters, Newtons, ...)
If the header above contains a line with 'inDegrees', this indicates whether rotational values are in degrees (yes) or radians (no).

endheader
time	pelvis_tilt	pelvis_list	pelvis_rotation	pelvis_tx	pelvis_ty	pelvis_tz	hip_flexion_r	hip_adduction_r	hip_rotation_r	knee_angle_r	ankle_angle_r	subtalar_angle_r	mtp_angle_r	hip_flexion_l	hip_adduction_l	hip_rotation_l	knee_angle_l	ankle_angle_l	subtalar_angle_l	mtp_angle_l	L5_S1_Flex_Ext	L5_S1_Lat_Bending	L5_S1_axial_rotation	neck_flexion	neck_bending	neck_rotation	arm_flex_r	arm_add_r	arm_rot_r	elbow_flex_r	pro_sup_r	wrist_flex_r	wrist_dev_r	arm_flex_l	arm_add_l	arm_rot_l	elbow_flex_l	pro_sup_l	wrist_flex_l	wrist_dev_l
60.240000	-0.993811	52.165867	-186.283922	-0.024009	0.015288	-0.100358	149.999778	30.000000	0.000000	155.000000	0.000000	0.000000	0.000000	149.999778	-10.789932	0.000000	150.411800	0.000000	0.000000	0.000000	0.423618	-90.000000	-90.000000	-28.647890	-89.586377	44.999991	884.310686	-612.548614	1150.330826	131.954830	91.831174	110.007897	12.697160	-544.333185	-541.994426	259.664168	131.150080	92.102279	110.007897	13.466593
60.320000	-1.038009	52.503913	-186.363331	-0.024313	0.023144	-0.099478	149.999778	30.000000	0.000000	155.000000	0.000000	0.000000	0.000000	149.999778	-10.657855	0.000000	149.379747	0.000000	0.000000	0.000000	0.418618	-90.000000	-90.000000	-28.647890	-89.750026	44.999991	892.720346	-612.293670	1135.731773	134.062630	90.623422	110.007897	12.543196	-544.475825	-541.811122	259.221619	130.821225	92.069344	110.007897	13.533787
60.400000	-1.092206	52.428472	-186.038897	-0.025505	0.027638	-0.099364	149.999778	30.000000	0.000000	155.000000	0.000000	0.000000	0.000000	149.999778	-10.438521	0.000000	148.169970	0.000000	0.000000	0.000000	0.428355	-90.000000	-90.000000	-28.647890	-89.477342	44.999991	900.260074	-611.189917	1122.863059	133.647814	90.297598	110.007897	12.622822	-544.371137	-541.391431	258.618077	130.402010	92.042540	110.007897	13.505917
60.480000	-1.135101	51.293738	-184.948577	-0.028069	0.020934	-0.101127	149.999778	30.000000	0.000000	155.000000	0.000000	0.000000	0.000000	149.999778	-10.036992	0.000000	146.913739	0.000000	0.000000	0.000000	0.541057	-90.000000	-90.000000	-28.647890	-88.848535	44.999991	891.195079	-612.147985	1138.912235	127.898508	93.086889	110.007897	12.653363	-543.621763	-541.110390	258.010804	130.837447	91.976951	110.007897	13.597218
60.560000	-1.112117	50.497874	-184.597459	-0.028965	0.022626	-0.101959	149.999778	30.000000	0.000000	155.000000	0.000000	0.000000	0.000000	149.999778	-9.678417	0.000000	145.640370	0.000000	0.000000	0.000000	0.605354	-90.000000	-90.000000	-28.647890	-88.919210	44.999991	890.604915	-612.670356	1138.683712	126.271055	93.214215	110.007897	12.719413	-542.937706	-541.354888	258.232108	131.661657	91.917387	110.007897	13.557876
60.640000	-1.191977	51.855665	-185.311523	-0.027861	0.058716	-0.098944	149.999778	30.000000	0.000000	155.000000	0.000000	0.000000	0.000000	149.999778	-9.339118	0.000000	144.378435	0.000000	0.000000	0.000000	0.470478	-90.000000	-90.000000	-28.647890	-88.197230	44.999991	918.306050	-597.536519	1064.389661	136.172750	87.370501	110.007897	14.020271	-543.189078	-541.353237	259.463719	131.073892	92.000845	110.007897	13.681707
60.720000	-1.641680	53.279492	-184.374272	-0.029247	0.104853	-0.095778	149.999778	30.000000	0.000000	154.597580	0.000000	0.000000	0.000000	149.999778	-8.225292	0.000000	143.095537	0.000000	0.000000	0.000000	0.525872	-90.000000	-90.000000	-28.647890	-87.731228	44.999991	910.422427	-584.396351	1037.435151	138.770543	89.952354	110.007897	14.181862	-543.043470	-540.240108	260.300393	129.396071	92.051735	110.007897	13.489019
60.800000	-1.743973	48.290848	-181.823624	-0.036146	0.107200	-0.103067	149.999778	30.000000	0.000000	155.000000	0.000000	0.000000	0.000000	149.999778	-7.339010	0.000000	142.482842	0.000000	0.000000	0.000000	0.822464	-90.000000	-90.000000	-28.647890	-88.413169	44.999991	912.947385	-602.096636	1090.587633	116.076410	94.411190	110.007897	12.258977	-539.827014	-541.012185	262.717448	131.046920	92.075817	110.007897	13.839192
60.880000	-1.767363	37.584669	-176.216775	-0.056417	0.087758	-0.118962	149.999778	29.596384	0.000000	155.000000	0.000000	0.000000	0.000000	149.412648	-7.561187	0.000000	143.623087	0.000000	0.000000	0.000000	1.196958	-90.000000	-90.000000	-28.647890	-87.969924	44.999991	857.504204	-599.758632	1200.315385	98.891832	102.640012	110.007897	13.606487	-542.430583	-547.616992	267.101962	141.388211	91.521459	110.007897	14.015446
60.960000	-2.440297	36.212293	-177.471478	-0.059460	0.138238	-0.129693	148.807394	25.876150	0.000000	155.000000	0.000000	0.000000	0.000000	148.727018	-6.624780	0.000000	144.941106	0.000000	0.000000	0.000000	1.702037	-90.000000	-90.000000	-28.647890	-89.395639	44.999991	815.132716	-589.730856	1261.371594	132.505319	93.758502	110.007897	-25.000000	-554.653088	-558.571313	280.254327	145.455443	104.491387	87.182201	27.335135
61.040000	-3.146865	39.024786	-172.511776	-0.068609	0.211655	-0.131030	149.999778	22.656023	0.000000	155.000000	0.000000	0.000000	0.000000	149.999778	-2.171974	0.000000	145.533373	0.000000	0.000000	0.000000	1.365278	-90.000000	-90.000000	-28.647890	-90.000000	44.999991	816.866314	-607.094063	1212.164676	121.746456	94.833222	110.007897	13.526068	-558.098779	-557.328945	284.103323	148.809019	102.800557	110.007897	27.362560
61.120000	-3.103496	35.670636	-163.382270	-0.079362	0.195697	-0.104009	149.999778	25.974079	0.000000	155.000000	0.000000	0.000000	0.000000	149.999778	-0.199804	0.000000	142.751157	0.000000	0.000000	0.000000	1.201120	-90.000000	-90.000000	-28.647890	-88.370591	44.999991	882.994583	-582.223747	1163.813465	75.071120	94.616100	110.007897	14.494713	-542.252786	-541.750422	269.748227	139.590669	98.239225	110.007897	15.729817
61.200000	-4.961444	14.847542	-95.175160	-0.227761	0.110476	0.373936	-48.364214	30.000000	0.000000	98.362074	0.000000	0.000000	0.000000	-49.847328	-9.609491	0.000000	120.206697	0.000000	0.000000	0.000000	0.121460	-90.000000	-90.000000	-28.647890	-78.120303	44.999991	912.494935	-481.699378	1220.052364	34.268873	119.748179	110.007897	35.000000	-548.103750	-565.708819	254.822816	104.231685	119.748179	92.500851	0.003056
61.280000	4.691302	2.760331	-82.138776	-0.169870	0.113279	0.484419	-49.847328	26.286513	0.000000	83.642959	0.000000	0.000000	0.000000	-49.847328	8.679252	0.000000	80.679297	0.000000	0.000000	0.000000	0.001663	-90.000000	-76.814228	-28.647890	-60.752086	44.999991	1009.341154	-471.735568	1470.115024	0.763526	0.000000	6.716461	20.400424	-527.672269	-572.881158	249.313759	108.585480	119.748179	74.186426	-13.418867
61.360000	1.226206	4.107599	-84.607799	-0.149749	0.157421	0.457322	-43.524934	13.452241	0.000000	85.078642	0.000000	0.000000	0.000000	-49.847328	30.000000	0.000000	51.366024	0.000000	0.000000	0.000000	0.363116	-66.276875	-90.000000	-28.647890	-56.067350	44.999991	1030.117273	-477.805666	1486.972506	0.000000	0.000000	7.242537	13.300860	-501.551164	-571.845241	247.787976	114.640959	119.748179	59.949009	-16.103988
61.440000	-7.046583	17.367045	-225.243435	-0.073983	0.253215	0.225030	53.336938	11.254098	0.000000	0.000000	0.000000	0.000000	0.000000	68.680615	-27.726746	0.000000	2.378908	0.000000	0.000000	0.000000	2.904024	29.669240	30.826215	-28.647890	-54.087575	44.999991	1047.446296	-483.005005	1471.959483	0.106284	0.000000	2.420135	9.766414	-462.430278	-561.982096	240.983107	128.205941	119.748179	34.565306	-11.538959
